<svg id="Layer_1" data-name="Layer 1" xmlns="http://www.w3.org/2000/svg" viewBox="0 0 678.82 148.03"><defs><style>.cls-1{fill:#fff;}</style></defs><path class="cls-1" d="M11.34,81a25.82,25.82,0,0,1-10-5.83A4.46,4.46,0,0,1,0,71.87a5,5,0,0,1,2.12-4.14,6.48,6.48,0,0,1,3.71-1.48,5.69,5.69,0,0,1,4,1.91,16.41,16.41,0,0,0,6,3.87,22.61,22.61,0,0,0,8.59,1.64q6,0,9.38-2a6.13,6.13,0,0,0,3.34-5.41,6.41,6.41,0,0,0-3.29-5.46q-3.29-2.17-11.13-3.66Q2.44,53.22,2.44,40.39a13.08,13.08,0,0,1,3.07-8.8,18.74,18.74,0,0,1,8.06-5.41,30.93,30.93,0,0,1,10.6-1.8,32.36,32.36,0,0,1,12.35,2.23,21.09,21.09,0,0,1,8.64,6.14,5.46,5.46,0,0,1,1.37,3.4,4.24,4.24,0,0,1-1.8,3.28,4.9,4.9,0,0,1-3,.85,7.27,7.27,0,0,1-5-2,15.69,15.69,0,0,0-5.62-3.45,22.56,22.56,0,0,0-7.2-1,17.13,17.13,0,0,0-8,1.65q-3.12,1.63-3.12,4.61a5.78,5.78,0,0,0,1.06,3.55,9.41,9.41,0,0,0,4,2.65,50.86,50.86,0,0,0,8.59,2.38Q38.05,51,42.88,55.12A13.47,13.47,0,0,1,47.7,65.83a15.58,15.58,0,0,1-2.65,8.85,17.64,17.64,0,0,1-7.79,6.25,30.36,30.36,0,0,1-12.35,2.28A40.62,40.62,0,0,1,11.34,81Z"/><path class="cls-1" d="M131.17,30.32q5.67,6,5.68,16.85V77.49a5.37,5.37,0,0,1-1.49,3.87,5.72,5.72,0,0,1-7.79,0A5.28,5.28,0,0,1,126,77.49V47.17q0-6.47-3.23-9.8A11.46,11.46,0,0,0,114.16,34a11.85,11.85,0,0,0-9.06,3.81,13.75,13.75,0,0,0-3.55,9.75v29.9a5.37,5.37,0,0,1-1.49,3.87,5.2,5.2,0,0,1-3.92,1.53,5.23,5.23,0,0,1-5.4-5.4V47.17q0-6.47-3.24-9.8A11.44,11.44,0,0,0,78.86,34a11.94,11.94,0,0,0-9.16,3.81,13.76,13.76,0,0,0-3.56,9.75v29.9a5.36,5.36,0,0,1-1.48,3.87,5.44,5.44,0,0,1-9.33-3.87V30.32a5.2,5.2,0,0,1,1.54-3.93,5.37,5.37,0,0,1,3.87-1.48,5.28,5.28,0,0,1,3.81,1.43,5.34,5.34,0,0,1,1.59,3.76,19.63,19.63,0,0,1,6.58-4.29A22,22,0,0,1,81,24.27a21.14,21.14,0,0,1,9.7,2.18,18.61,18.61,0,0,1,7,6.2,22,22,0,0,1,8-6.15,24.81,24.81,0,0,1,10.6-2.23Q125.51,24.27,131.17,30.32Z"/><path class="cls-1" d="M189.79,28.25a28.48,28.48,0,0,1,10.5,10.6,29.66,29.66,0,0,1,3.86,15V77.49a5.41,5.41,0,1,1-10.81,0V73.56a26.67,26.67,0,0,1-34.29,5.83,26.75,26.75,0,0,1-9.75-10.54,31.63,31.63,0,0,1-3.55-15,29.93,29.93,0,0,1,3.81-15,27.9,27.9,0,0,1,10.55-10.6A29.34,29.34,0,0,1,175,24.38,28.74,28.74,0,0,1,189.79,28.25ZM184.6,71.07a18.32,18.32,0,0,0,6.73-7.1,21,21,0,0,0,2.44-10.12,21.3,21.3,0,0,0-2.44-10.18,18.69,18.69,0,0,0-25.92-7.15,18.59,18.59,0,0,0-6.78,7.15,20.88,20.88,0,0,0-2.49,10.18A20.57,20.57,0,0,0,158.63,64a18.67,18.67,0,0,0,6.78,7.1,19,19,0,0,0,19.19,0Z"/><path class="cls-1" d="M251.43,25.86q3.18,1.71,3.18,4.24a3.67,3.67,0,0,1-.11,1.06,4.1,4.1,0,0,1-4.24,3.4,8.4,8.4,0,0,1-1.59-.22,42.15,42.15,0,0,0-6.89-.74q-7.62,0-12.29,3.5a11.19,11.19,0,0,0-4.67,9.43v31a5.45,5.45,0,0,1-1.32,3.92,5.29,5.29,0,0,1-4,1.38,5.41,5.41,0,0,1-3.92-1.33,5.26,5.26,0,0,1-1.38-4V30.1a5.31,5.31,0,0,1,1.38-3.92,5.31,5.31,0,0,1,3.92-1.38c3.54,0,5.3,1.77,5.3,5.3v2a22.38,22.38,0,0,1,7.85-5.83,23.84,23.84,0,0,1,10-2.12Q248.26,24.17,251.43,25.86Z"/><path class="cls-1" d="M287.63,73.67A5.53,5.53,0,0,1,289,77.49a4.76,4.76,0,0,1-1.75,3.81,6.69,6.69,0,0,1-4.5,1.49h-1.91a17.51,17.51,0,0,1-9.49-2.71,18.84,18.84,0,0,1-6.73-7.36,22.39,22.39,0,0,1-2.44-10.5V36h-4.87a5.08,5.08,0,0,1-3.6-1.27,4.15,4.15,0,0,1-1.38-3.18,4.38,4.38,0,0,1,1.38-3.39,5.08,5.08,0,0,1,3.6-1.28h4.87V11.66a5.31,5.31,0,1,1,10.61,0V26.92h9a5.1,5.1,0,0,1,3.6,1.28,4.38,4.38,0,0,1,1.38,3.39,4.15,4.15,0,0,1-1.38,3.18,5.09,5.09,0,0,1-3.6,1.27h-9V62.22a10.82,10.82,0,0,0,2.33,7.1,7.12,7.12,0,0,0,5.72,2.87h3.61A4.17,4.17,0,0,1,287.63,73.67Z"/><path class="cls-1" d="M340.89,28a28.08,28.08,0,0,1,10.65,10.65,29.83,29.83,0,0,1,3.87,15.05,30,30,0,0,1-3.87,15.16,28.08,28.08,0,0,1-10.65,10.65,31.5,31.5,0,0,1-30.05.11,28,28,0,0,1-10.65-10.44,29.48,29.48,0,0,1-4-14.84V3.18a3.05,3.05,0,0,1,.9-2.33A3.17,3.17,0,0,1,299.34,0a3.12,3.12,0,0,1,2.33.85,3.14,3.14,0,0,1,.85,2.33V36.25a24.75,24.75,0,0,1,9.59-8.85,28.71,28.71,0,0,1,13.62-3.23A30,30,0,0,1,340.89,28Zm-3.28,46.32A22.84,22.84,0,0,0,346,65.83a24,24,0,0,0,3.07-12.09A24,24,0,0,0,346,41.66a22.42,22.42,0,0,0-8.37-8.48,24.43,24.43,0,0,0-23.75,0,22,22,0,0,0-8.32,8.48,24.36,24.36,0,0,0-3,12.08,24.43,24.43,0,0,0,3,12.09,22.42,22.42,0,0,0,8.32,8.53,24.09,24.09,0,0,0,23.75,0Z"/><path class="cls-1" d="M376.61,79.55A28.08,28.08,0,0,1,366,68.9a29.83,29.83,0,0,1-3.87-15.05A30.05,30.05,0,0,1,366,38.69,28.08,28.08,0,0,1,376.61,28a31.41,31.41,0,0,1,30.21,0,28,28,0,0,1,10.66,10.65,30.05,30.05,0,0,1,3.87,15.16,29.83,29.83,0,0,1-3.87,15.05,28,28,0,0,1-10.66,10.65,31.41,31.41,0,0,1-30.21,0Zm27-5.14A22,22,0,0,0,412,65.93a24.36,24.36,0,0,0,3-12.08,24.43,24.43,0,0,0-3-12.09,22.52,22.52,0,0,0-8.33-8.53,23.27,23.27,0,0,0-32.11,8.53,24.05,24.05,0,0,0-3.08,12.09,24,24,0,0,0,3.08,12.08,22.42,22.42,0,0,0,8.37,8.48,24.41,24.41,0,0,0,23.74,0Z"/><path class="cls-1" d="M472.75,28a28,28,0,0,1,10.66,10.65,30.05,30.05,0,0,1,3.87,15.16V79.61a3.18,3.18,0,0,1-.85,2.27,3,3,0,0,1-2.33.91,3.09,3.09,0,0,1-3.18-3.18V71.34a24.78,24.78,0,0,1-9.6,8.85,28.53,28.53,0,0,1-13.62,3.23,30.08,30.08,0,0,1-15.16-3.87A28.08,28.08,0,0,1,431.89,68.9,29.83,29.83,0,0,1,428,53.85a30.05,30.05,0,0,1,3.87-15.16A28.08,28.08,0,0,1,442.54,28a31.41,31.41,0,0,1,30.21,0Zm-3.17,46.37a22.08,22.08,0,0,0,8.32-8.48,24.36,24.36,0,0,0,3-12.08,24.43,24.43,0,0,0-3-12.09,22.56,22.56,0,0,0-8.32-8.53,23.28,23.28,0,0,0-32.12,8.53,24.05,24.05,0,0,0-3.08,12.09,24,24,0,0,0,3.08,12.08,22.42,22.42,0,0,0,8.37,8.48,24.43,24.43,0,0,0,23.75,0Z"/><path class="cls-1" d="M525.7,77.22a3.24,3.24,0,0,1,.9,2.39,3.05,3.05,0,0,1-.9,2.27,3.2,3.2,0,0,1-2.38.91h-2.44a20.35,20.35,0,0,1-10.39-2.65,18.69,18.69,0,0,1-7.1-7.26,21.25,21.25,0,0,1-2.55-10.45V32.65h-8.26a2.87,2.87,0,1,1,0-5.73h8.26V9.65a3.2,3.2,0,0,1,.91-2.39,3.05,3.05,0,0,1,2.27-.9,3.1,3.1,0,0,1,3.29,3.29V26.92h14a2.87,2.87,0,1,1,0,5.73h-14V62.43a13.64,13.64,0,0,0,3.82,10A13.23,13.23,0,0,0,521,76.32h2.34A3.23,3.23,0,0,1,525.7,77.22Z"/><path class="cls-1" d="M535.51,11.18a4.9,4.9,0,0,1-1.38-3.55A4.48,4.48,0,0,1,535.61,4a5.2,5.2,0,0,1,3.5-1.27A5,5,0,0,1,542.55,4,4.56,4.56,0,0,1,544,7.63a4.9,4.9,0,0,1-5,5A4.6,4.6,0,0,1,535.51,11.18Zm1.32,70.7a3.05,3.05,0,0,1-.9-2.27V28a3.07,3.07,0,0,1,.9-2.33,3.22,3.22,0,0,1,2.28-.85A2.94,2.94,0,0,1,542.29,28V79.61a3.13,3.13,0,0,1-.85,2.27,3,3,0,0,1-2.33.91A3.06,3.06,0,0,1,536.83,81.88Z"/><path class="cls-1" d="M597.78,27.24a23,23,0,0,1,9.54,9.28,29.11,29.11,0,0,1,3.45,14.57V79.61a3.18,3.18,0,1,1-6.36,0V51.09q0-10.06-5.68-15.37T584,30.42a23.8,23.8,0,0,0-10.23,2.17,17.69,17.69,0,0,0-7.26,6,14.74,14.74,0,0,0-2.65,8.53V79.61a3.18,3.18,0,0,1-.85,2.27,3,3,0,0,1-2.33.91,3.09,3.09,0,0,1-3.18-3.18V28a3.07,3.07,0,0,1,.9-2.33,3.22,3.22,0,0,1,2.28-.85A2.94,2.94,0,0,1,563.81,28V33.5a25.1,25.1,0,0,1,8.8-6.95A25.87,25.87,0,0,1,584,24.06,29.46,29.46,0,0,1,597.78,27.24Z"/><path class="cls-1" d="M664.56,28a27.14,27.14,0,0,1,10.49,10.55,30.84,30.84,0,0,1,3.77,15.32V74.62A31.54,31.54,0,0,1,675,90.05a28.43,28.43,0,0,1-25.33,14.89A32.55,32.55,0,0,1,635,101.81a30.23,30.23,0,0,1-10.55-8.53,3.37,3.37,0,0,1-.85-2.12,2.31,2.31,0,0,1,1.06-2,3.06,3.06,0,0,1,1.91-.64,3.3,3.3,0,0,1,2.75,1.38A25,25,0,0,0,638,96.57,27.11,27.11,0,0,0,649.67,99a21.9,21.9,0,0,0,11.66-3.18,22.4,22.4,0,0,0,8.16-8.74,26,26,0,0,0,3-12.46V70a23.08,23.08,0,0,1-9.17,9.86,27.13,27.13,0,0,1-14,3.6,30.86,30.86,0,0,1-15.32-3.76,27.18,27.18,0,0,1-10.54-10.49,30.48,30.48,0,0,1-3.82-15.32,30,30,0,0,1,3.92-15.27A28.17,28.17,0,0,1,634.19,28a30.2,30.2,0,0,1,15-3.81A30.55,30.55,0,0,1,664.56,28Zm-3.34,46.48a21.4,21.4,0,0,0,8.27-8.37,24.81,24.81,0,0,0,3-12.24,25.13,25.13,0,0,0-3-12.3,21.42,21.42,0,0,0-8.27-8.43,25.47,25.47,0,0,0-24.06,0,21.36,21.36,0,0,0-8.27,8.43,25.13,25.13,0,0,0-3,12.3,24.81,24.81,0,0,0,3,12.24,21.33,21.33,0,0,0,8.27,8.37,25.4,25.4,0,0,0,24.06,0Z"/><path class="cls-1" d="M27.55,114.75a4.54,4.54,0,0,1-.05.69,1.26,1.26,0,0,1-.13.47.78.78,0,0,1-.23.27.65.65,0,0,1-.31.08H19.19v23.56a.55.55,0,0,1-.08.29.57.57,0,0,1-.3.2,3.46,3.46,0,0,1-.55.13,7.1,7.1,0,0,1-.88.05,7,7,0,0,1-.86-.05,3.62,3.62,0,0,1-.56-.13.57.57,0,0,1-.3-.2.55.55,0,0,1-.08-.29V116.26H7.94a.62.62,0,0,1-.31-.08.67.67,0,0,1-.22-.27,2.24,2.24,0,0,1-.14-.47,4.54,4.54,0,0,1,0-.69,4.68,4.68,0,0,1,0-.7,2.85,2.85,0,0,1,.14-.5.61.61,0,0,1,.22-.27.53.53,0,0,1,.31-.08H26.83a.55.55,0,0,1,.31.08.7.7,0,0,1,.23.27,1.51,1.51,0,0,1,.13.5A4.68,4.68,0,0,1,27.55,114.75Z"/><path class="cls-1" d="M47.78,139.84a.43.43,0,0,1-.09.28.58.58,0,0,1-.27.2,1.86,1.86,0,0,1-.53.13,6.54,6.54,0,0,1-.84,0,6.88,6.88,0,0,1-.86,0,1.78,1.78,0,0,1-.52-.13.61.61,0,0,1-.28-.2.49.49,0,0,1-.08-.28V128.77a10.81,10.81,0,0,0-.25-2.6,5.28,5.28,0,0,0-.74-1.7,3.1,3.1,0,0,0-1.24-1.09A4,4,0,0,0,40.3,123a4.5,4.5,0,0,0-2.6.92A14.12,14.12,0,0,0,35,126.63v13.21a.43.43,0,0,1-.09.28.53.53,0,0,1-.27.2,1.87,1.87,0,0,1-.52.13,7,7,0,0,1-.87,0,6.74,6.74,0,0,1-.84,0,2,2,0,0,1-.53-.13.53.53,0,0,1-.27-.2.49.49,0,0,1-.08-.28v-28a.55.55,0,0,1,.08-.29.56.56,0,0,1,.27-.22,2.47,2.47,0,0,1,.53-.12,6.74,6.74,0,0,1,.84,0,7,7,0,0,1,.87,0,2.36,2.36,0,0,1,.52.12.56.56,0,0,1,.27.22.48.48,0,0,1,.09.29v11.32a11.31,11.31,0,0,1,3-2.35,6.67,6.67,0,0,1,3-.76,7.14,7.14,0,0,1,3.19.64,5.87,5.87,0,0,1,2.09,1.71,6.79,6.79,0,0,1,1.14,2.51,15.09,15.09,0,0,1,.35,3.47Z"/><path class="cls-1" d="M70.65,129.57a1.47,1.47,0,0,1-.41,1.17,1.43,1.43,0,0,1-.94.34H56.86a11.77,11.77,0,0,0,.31,2.84,5.47,5.47,0,0,0,1.06,2.16,4.82,4.82,0,0,0,1.92,1.39A7.7,7.7,0,0,0,63,138a11.54,11.54,0,0,0,2.4-.22,15.25,15.25,0,0,0,1.83-.49c.51-.19.93-.35,1.26-.5a2.28,2.28,0,0,1,.75-.22.5.5,0,0,1,.27.08.51.51,0,0,1,.18.22,1.49,1.49,0,0,1,.09.41,5.6,5.6,0,0,1,0,.64,3.32,3.32,0,0,1,0,.47,3.48,3.48,0,0,1,0,.36,1,1,0,0,1-.11.28,1.88,1.88,0,0,1-.18.24,3.32,3.32,0,0,1-.69.38,10.6,10.6,0,0,1-1.47.51,18.7,18.7,0,0,1-2.09.45,14.5,14.5,0,0,1-2.53.2,11.57,11.57,0,0,1-4.08-.65,7.58,7.58,0,0,1-3-1.93,8.1,8.1,0,0,1-1.8-3.21,14.87,14.87,0,0,1-.61-4.49,14.12,14.12,0,0,1,.63-4.38,9.22,9.22,0,0,1,1.81-3.3,8.07,8.07,0,0,1,2.87-2.08,9.44,9.44,0,0,1,3.76-.72,9.22,9.22,0,0,1,3.79.71,7.26,7.26,0,0,1,2.57,1.92,7.85,7.85,0,0,1,1.48,2.84,12.54,12.54,0,0,1,.47,3.47Zm-3.48-1A6.33,6.33,0,0,0,66,124.26a4.61,4.61,0,0,0-3.79-1.55,5,5,0,0,0-2.26.48,4.91,4.91,0,0,0-1.63,1.28,5.75,5.75,0,0,0-1,1.86,7.44,7.44,0,0,0-.4,2.21Z"/><path class="cls-1" d="M101,138.79a6.47,6.47,0,0,1,0,.7,2,2,0,0,1-.14.49.69.69,0,0,1-.23.29.58.58,0,0,1-.33.09h-12a1.47,1.47,0,0,1-.91-.32,1.35,1.35,0,0,1-.43-1.15V113.74a.55.55,0,0,1,.08-.29.57.57,0,0,1,.3-.2,3.51,3.51,0,0,1,.57-.13,7.51,7.51,0,0,1,1.73,0,3.46,3.46,0,0,1,.55.13.57.57,0,0,1,.3.2.55.55,0,0,1,.08.29v23.5h9.74a.58.58,0,0,1,.33.09.69.69,0,0,1,.23.27,1.62,1.62,0,0,1,.14.48A6.68,6.68,0,0,1,101,138.79Z"/><path class="cls-1" d="M121.13,129.57a1.43,1.43,0,0,1-.41,1.17,1.4,1.4,0,0,1-.94.34H107.34a11.74,11.74,0,0,0,.32,2.84,5.45,5.45,0,0,0,1,2.16,4.82,4.82,0,0,0,1.92,1.39,7.7,7.7,0,0,0,2.89.48,11.71,11.71,0,0,0,2.41-.22,15.05,15.05,0,0,0,1.82-.49c.51-.19.94-.35,1.27-.5a2.22,2.22,0,0,1,.75-.22.47.47,0,0,1,.26.08.4.4,0,0,1,.18.22,1.49,1.49,0,0,1,.09.41,3.82,3.82,0,0,1,0,.64c0,.18,0,.34,0,.47s0,.25-.06.36a.94.94,0,0,1-.1.28,1.33,1.33,0,0,1-.19.24,3.43,3.43,0,0,1-.68.38,11.09,11.09,0,0,1-1.47.51,19.73,19.73,0,0,1-2.09.45,14.58,14.58,0,0,1-2.53.2,11.59,11.59,0,0,1-4.09-.65,7.65,7.65,0,0,1-3-1.93,8.22,8.22,0,0,1-1.8-3.21,14.87,14.87,0,0,1-.61-4.49,14.12,14.12,0,0,1,.63-4.38,9.09,9.09,0,0,1,1.82-3.3,8,8,0,0,1,2.86-2.08,9.44,9.44,0,0,1,3.76-.72,9.19,9.19,0,0,1,3.79.71,7.26,7.26,0,0,1,2.57,1.92,7.7,7.7,0,0,1,1.48,2.84,12.18,12.18,0,0,1,.47,3.47Zm-3.48-1a6.28,6.28,0,0,0-1.22-4.28,4.6,4.6,0,0,0-3.79-1.55,5,5,0,0,0-2.26.48,4.91,4.91,0,0,0-1.63,1.28,6,6,0,0,0-1,1.86,7.78,7.78,0,0,0-.4,2.21Z"/><path class="cls-1" d="M141.07,139.86a.46.46,0,0,1-.17.38,1.16,1.16,0,0,1-.46.19,4.62,4.62,0,0,1-.86.06,4.9,4.9,0,0,1-.87-.06,1,1,0,0,1-.47-.19.48.48,0,0,1-.15-.38V138a9.48,9.48,0,0,1-2.76,2.06,7.34,7.34,0,0,1-3.23.73,9,9,0,0,1-2.69-.38,5.86,5.86,0,0,1-2.06-1.13,5,5,0,0,1-1.32-1.8,5.94,5.94,0,0,1-.48-2.44,5.67,5.67,0,0,1,.65-2.77,5.44,5.44,0,0,1,1.87-2,9.19,9.19,0,0,1,3-1.17,18.48,18.48,0,0,1,4-.39h2.61v-1.47a7.51,7.51,0,0,0-.23-1.93,3.49,3.49,0,0,0-.75-1.4,3.23,3.23,0,0,0-1.33-.84,6.52,6.52,0,0,0-2-.28,7.81,7.81,0,0,0-2.3.31,11.29,11.29,0,0,0-1.78.67c-.51.24-.94.47-1.28.67a1.82,1.82,0,0,1-.77.3.47.47,0,0,1-.29-.08.67.67,0,0,1-.22-.25,1.21,1.21,0,0,1-.14-.43,3.52,3.52,0,0,1,0-.58,3.65,3.65,0,0,1,.07-.83,1.27,1.27,0,0,1,.36-.58,4.86,4.86,0,0,1,1-.64,11.51,11.51,0,0,1,1.6-.67,14.51,14.51,0,0,1,2-.5,12.68,12.68,0,0,1,5.63.26,5.7,5.7,0,0,1,2.31,1.35,5.22,5.22,0,0,1,1.28,2.22,10.58,10.58,0,0,1,.4,3.09Zm-3.44-8.63h-3a11.2,11.2,0,0,0-2.48.24,5,5,0,0,0-1.74.72,2.81,2.81,0,0,0-1,1.13,3.37,3.37,0,0,0-.33,1.52,3,3,0,0,0,.94,2.34,3.67,3.67,0,0,0,2.61.87,4.89,4.89,0,0,0,2.53-.69,11,11,0,0,0,2.45-2.12Z"/><path class="cls-1" d="M164.05,139.84a.54.54,0,0,1-.07.29.49.49,0,0,1-.26.2,1.86,1.86,0,0,1-.47.12,4.78,4.78,0,0,1-.71,0,5.13,5.13,0,0,1-.74,0,2.39,2.39,0,0,1-.48-.12.48.48,0,0,1-.27-.2.48.48,0,0,1-.09-.29v-2.5a12.6,12.6,0,0,1-3.09,2.52,7.09,7.09,0,0,1-3.52.9,7.36,7.36,0,0,1-3.55-.8,6.68,6.68,0,0,1-2.38-2.19,9.81,9.81,0,0,1-1.34-3.23,17.78,17.78,0,0,1-.41-3.92,17.08,17.08,0,0,1,.52-4.4,10.05,10.05,0,0,1,1.55-3.35,7.07,7.07,0,0,1,2.55-2.13,8,8,0,0,1,3.52-.74,6.46,6.46,0,0,1,3,.72,11.09,11.09,0,0,1,2.71,2.13v-11a.57.57,0,0,1,.08-.28.49.49,0,0,1,.28-.21,3.58,3.58,0,0,1,.54-.13,6,6,0,0,1,.83,0,6.64,6.64,0,0,1,.86,0,2.78,2.78,0,0,1,.52.13.64.64,0,0,1,.29.21.49.49,0,0,1,.09.28Zm-3.49-13.29a13.68,13.68,0,0,0-2.71-2.66,4.73,4.73,0,0,0-2.74-.91,3.87,3.87,0,0,0-2.25.63,4.71,4.71,0,0,0-1.5,1.66,7.58,7.58,0,0,0-.84,2.33,13,13,0,0,0-.27,2.64,17.16,17.16,0,0,0,.23,2.8,8,8,0,0,0,.76,2.42,4.65,4.65,0,0,0,1.45,1.7,3.8,3.8,0,0,0,2.27.64,4.55,4.55,0,0,0,1.33-.19,4.48,4.48,0,0,0,1.31-.63,9.53,9.53,0,0,0,1.41-1.14,17.43,17.43,0,0,0,1.55-1.73Z"/><path class="cls-1" d="M174.75,114.56a2.29,2.29,0,0,1-.47,1.66,2.48,2.48,0,0,1-1.7.44,2.4,2.4,0,0,1-1.66-.43,2.2,2.2,0,0,1-.46-1.63,2.34,2.34,0,0,1,.46-1.66,2.53,2.53,0,0,1,1.71-.44,2.45,2.45,0,0,1,1.66.43A2.2,2.2,0,0,1,174.75,114.56Zm-.4,25.28a.43.43,0,0,1-.09.28.53.53,0,0,1-.27.2,1.87,1.87,0,0,1-.52.13,7,7,0,0,1-.87,0,6.74,6.74,0,0,1-.84,0,2,2,0,0,1-.53-.13.53.53,0,0,1-.27-.2.49.49,0,0,1-.08-.28v-18.9a.5.5,0,0,1,.08-.27.61.61,0,0,1,.27-.21,2,2,0,0,1,.53-.13c.23,0,.51,0,.84,0s.64,0,.87,0a1.87,1.87,0,0,1,.52.13.61.61,0,0,1,.27.21.44.44,0,0,1,.09.27Z"/><path class="cls-1" d="M197.45,139.84a.49.49,0,0,1-.08.28.64.64,0,0,1-.27.2,2,2,0,0,1-.53.13,6.54,6.54,0,0,1-.84,0,6.78,6.78,0,0,1-.86,0,1.78,1.78,0,0,1-.52-.13.61.61,0,0,1-.28-.2.49.49,0,0,1-.08-.28V128.77a11.35,11.35,0,0,0-.25-2.6,5.5,5.5,0,0,0-.74-1.7,3.13,3.13,0,0,0-1.25-1.09A4,4,0,0,0,190,123a4.48,4.48,0,0,0-2.6.92,14.12,14.12,0,0,0-2.73,2.71v13.21a.43.43,0,0,1-.09.28.58.58,0,0,1-.27.2,1.86,1.86,0,0,1-.53.13,9.05,9.05,0,0,1-1.7,0,2,2,0,0,1-.53-.13.52.52,0,0,1-.28-.2.58.58,0,0,1-.07-.28v-18.9a.61.61,0,0,1,.06-.28.57.57,0,0,1,.26-.21,1.38,1.38,0,0,1,.48-.13q.28,0,.78,0c.3,0,.56,0,.76,0a1.26,1.26,0,0,1,.47.13.6.6,0,0,1,.25.21.51.51,0,0,1,.07.28v2.5a11.43,11.43,0,0,1,3.18-2.61,6.76,6.76,0,0,1,3.2-.83,7.07,7.07,0,0,1,3.18.64,5.79,5.79,0,0,1,2.09,1.71,6.81,6.81,0,0,1,1.15,2.51,15,15,0,0,1,.34,3.45Z"/><path class="cls-1" d="M220,121.8a2,2,0,0,1-.2,1.06.58.58,0,0,1-.51.33h-2.71a4.27,4.27,0,0,1,1,1.67,6.34,6.34,0,0,1,.29,1.9,7.5,7.5,0,0,1-.52,2.9,5.8,5.8,0,0,1-1.5,2.13,6.8,6.8,0,0,1-2.32,1.33,9.09,9.09,0,0,1-3,.46,7.9,7.9,0,0,1-2.2-.3,4.56,4.56,0,0,1-1.61-.77,3.27,3.27,0,0,0-.61.86,2.37,2.37,0,0,0-.25,1.12,1.43,1.43,0,0,0,.69,1.21,3.24,3.24,0,0,0,1.81.53l4.94.21a10.34,10.34,0,0,1,2.58.39,6.66,6.66,0,0,1,2,1,4.62,4.62,0,0,1,1.34,1.58,4.69,4.69,0,0,1,.48,2.17,5.65,5.65,0,0,1-2.21,4.55,8.45,8.45,0,0,1-2.87,1.4,14.31,14.31,0,0,1-4.11.52,16.76,16.76,0,0,1-3.9-.39,8.33,8.33,0,0,1-2.63-1.06,4,4,0,0,1-1.49-1.61,4.48,4.48,0,0,1-.47-2,5.55,5.55,0,0,1,.17-1.35,5,5,0,0,1,.52-1.24,5.88,5.88,0,0,1,.86-1.12,11.3,11.3,0,0,1,1.18-1.06,3.76,3.76,0,0,1-1.52-1.32,3.21,3.21,0,0,1-.49-1.72,4.86,4.86,0,0,1,.52-2.29,7.86,7.86,0,0,1,1.3-1.81,6.23,6.23,0,0,1-1-1.75,6.38,6.38,0,0,1-.38-2.36,7.39,7.39,0,0,1,.54-2.9,6.12,6.12,0,0,1,1.52-2.16,6.59,6.59,0,0,1,2.32-1.36,9,9,0,0,1,2.95-.47,11.28,11.28,0,0,1,3,.36h5.71a.55.55,0,0,1,.53.34A2.41,2.41,0,0,1,220,121.8Zm-3.67,20a2.12,2.12,0,0,0-1-1.88,5.06,5.06,0,0,0-2.7-.7l-4.89-.17a8.6,8.6,0,0,0-1.1,1,4.63,4.63,0,0,0-.68.9,2.89,2.89,0,0,0-.35.85,4.12,4.12,0,0,0-.1.86,2.24,2.24,0,0,0,1.39,2.07,8.67,8.67,0,0,0,3.86.7,9.89,9.89,0,0,0,2.64-.3,4.86,4.86,0,0,0,1.71-.81,3,3,0,0,0,.94-1.16A3.48,3.48,0,0,0,216.32,141.75Zm-1.74-15a4.14,4.14,0,0,0-1.06-3,4.06,4.06,0,0,0-3-1.08,4.3,4.3,0,0,0-1.75.33,3.41,3.41,0,0,0-1.24.93,3.84,3.84,0,0,0-.73,1.35,5.07,5.07,0,0,0-.25,1.61,3.71,3.71,0,0,0,4,4,4.42,4.42,0,0,0,1.78-.33,3.49,3.49,0,0,0,1.25-.9,3.79,3.79,0,0,0,.73-1.34A4.83,4.83,0,0,0,214.58,126.78Z"/><path class="cls-1" d="M253.33,132.58a8.42,8.42,0,0,1-.32,2.36,6.94,6.94,0,0,1-.92,1.94,6.74,6.74,0,0,1-1.41,1.51,8.41,8.41,0,0,1-1.87,1.09,10,10,0,0,1-2.23.66,14.67,14.67,0,0,1-2.72.22h-7.09a1.49,1.49,0,0,1-.92-.32,1.38,1.38,0,0,1-.43-1.15V114.67a1.38,1.38,0,0,1,.43-1.15,1.49,1.49,0,0,1,.92-.32h6.17a14.29,14.29,0,0,1,4,.46,6.84,6.84,0,0,1,2.59,1.34,5.53,5.53,0,0,1,1.57,2.16,7.61,7.61,0,0,1,.52,2.9,7,7,0,0,1-.23,1.85,6,6,0,0,1-.68,1.63,5.52,5.52,0,0,1-1.14,1.33,5.84,5.84,0,0,1-1.56,1,6.6,6.6,0,0,1,2.08.77,6.21,6.21,0,0,1,1.69,1.42,6.58,6.58,0,0,1,1.14,2A7.41,7.41,0,0,1,253.33,132.58Zm-5.43-12.16a5.6,5.6,0,0,0-.28-1.79,3.2,3.2,0,0,0-.86-1.35,3.8,3.8,0,0,0-1.52-.85,8.48,8.48,0,0,0-2.5-.3H239v8.8h4.11a5.7,5.7,0,0,0,2.26-.37,4.09,4.09,0,0,0,1.43-1,3.85,3.85,0,0,0,.82-1.45A5.46,5.46,0,0,0,247.9,120.42Zm1.63,12.36a5.68,5.68,0,0,0-.38-2.14,4.09,4.09,0,0,0-1.14-1.55,5,5,0,0,0-1.86-1,10.63,10.63,0,0,0-2.82-.32H239v9.57h5.24a7,7,0,0,0,2.16-.29,5,5,0,0,0,1.63-.87,4.11,4.11,0,0,0,1.09-1.44A4.64,4.64,0,0,0,249.53,132.78Z"/><path class="cls-1" d="M276.42,130.18a14.31,14.31,0,0,1-.61,4.25,9.35,9.35,0,0,1-1.82,3.35,8.23,8.23,0,0,1-3,2.2,10.58,10.58,0,0,1-4.21.78,10.92,10.92,0,0,1-4.06-.69,7.3,7.3,0,0,1-2.89-2,8.54,8.54,0,0,1-1.72-3.21,14.78,14.78,0,0,1-.57-4.28,14.31,14.31,0,0,1,.6-4.25,9.18,9.18,0,0,1,1.81-3.35,8.06,8.06,0,0,1,3-2.19,10.74,10.74,0,0,1,4.22-.77,10.92,10.92,0,0,1,4.06.69,7.4,7.4,0,0,1,2.89,2,8.56,8.56,0,0,1,1.73,3.21A14.39,14.39,0,0,1,276.42,130.18Zm-3.59.23a14.19,14.19,0,0,0-.29-2.9,7.07,7.07,0,0,0-.94-2.39,4.75,4.75,0,0,0-1.78-1.63,5.89,5.89,0,0,0-2.8-.59,6.07,6.07,0,0,0-2.66.54,5,5,0,0,0-1.83,1.54,7,7,0,0,0-1.07,2.37,12.12,12.12,0,0,0-.35,3,14.31,14.31,0,0,0,.29,2.92,7,7,0,0,0,1,2.38,4.83,4.83,0,0,0,1.79,1.62,5.89,5.89,0,0,0,2.8.59,6.05,6.05,0,0,0,2.65-.54,5.07,5.07,0,0,0,1.84-1.53,6.84,6.84,0,0,0,1.06-2.35A12.9,12.9,0,0,0,272.83,130.41Z"/><path class="cls-1" d="M296.19,139.86a.46.46,0,0,1-.17.38,1.23,1.23,0,0,1-.46.19,4.7,4.7,0,0,1-.86.06,5.1,5.1,0,0,1-.88-.06,1.09,1.09,0,0,1-.47-.19.47.47,0,0,1-.14-.38V138a9.39,9.39,0,0,1-2.77,2.06,7.3,7.3,0,0,1-3.22.73,9.13,9.13,0,0,1-2.7-.38,6,6,0,0,1-2.06-1.13,5.19,5.19,0,0,1-1.32-1.8,6.1,6.1,0,0,1-.47-2.44,5.67,5.67,0,0,1,.65-2.77,5.36,5.36,0,0,1,1.87-2,9.19,9.19,0,0,1,3-1.17,18.48,18.48,0,0,1,4-.39h2.6v-1.47a7.1,7.1,0,0,0-.23-1.93,3.36,3.36,0,0,0-.74-1.4,3.27,3.27,0,0,0-1.34-.84,6.45,6.45,0,0,0-2-.28,7.76,7.76,0,0,0-2.3.31,11.43,11.43,0,0,0-1.79.67c-.51.24-.93.47-1.28.67a1.74,1.74,0,0,1-.76.3.5.5,0,0,1-.3-.08.78.78,0,0,1-.22-.25,1.21,1.21,0,0,1-.13-.43,3.48,3.48,0,0,1-.05-.58,3.56,3.56,0,0,1,.08-.83A1.24,1.24,0,0,1,282,122a5,5,0,0,1,1-.64,10.56,10.56,0,0,1,1.6-.67,14.51,14.51,0,0,1,2-.5,11.13,11.13,0,0,1,2.16-.2,11.31,11.31,0,0,1,3.47.46,5.7,5.7,0,0,1,2.31,1.35,5.43,5.43,0,0,1,1.28,2.22,10.93,10.93,0,0,1,.4,3.09Zm-3.45-8.63h-3a11.27,11.27,0,0,0-2.48.24,5,5,0,0,0-1.74.72,3,3,0,0,0-1,1.13,3.5,3.5,0,0,0-.32,1.52,3.05,3.05,0,0,0,.93,2.34,3.72,3.72,0,0,0,2.62.87,4.89,4.89,0,0,0,2.53-.69,11,11,0,0,0,2.44-2.12Z"/><path class="cls-1" d="M312.41,138.45a4.14,4.14,0,0,1-.09,1,1.1,1.1,0,0,1-.25.52,1.54,1.54,0,0,1-.5.32,4.09,4.09,0,0,1-.77.24c-.29.06-.59.12-.91.16a8,8,0,0,1-1,.06,7.25,7.25,0,0,1-2.52-.39,4.12,4.12,0,0,1-1.72-1.17,4.81,4.81,0,0,1-1-2,11.84,11.84,0,0,1-.3-2.84v-11h-2.65a.56.56,0,0,1-.5-.33,2.31,2.31,0,0,1-.19-1.09,4.31,4.31,0,0,1,.05-.68,2,2,0,0,1,.14-.45.5.5,0,0,1,.22-.25.6.6,0,0,1,.3-.07h2.63v-4.5a.52.52,0,0,1,.07-.27.62.62,0,0,1,.27-.22,2.1,2.1,0,0,1,.54-.14c.22,0,.5,0,.84,0s.64,0,.86,0a1.74,1.74,0,0,1,.52.14.72.72,0,0,1,.28.22.53.53,0,0,1,.08.27v4.5h4.85a.6.6,0,0,1,.3.07.69.69,0,0,1,.22.25,1.61,1.61,0,0,1,.13.45,4.31,4.31,0,0,1,.05.68,2.44,2.44,0,0,1-.19,1.09.58.58,0,0,1-.51.33h-4.85v10.54a5.91,5.91,0,0,0,.58,2.95,2.17,2.17,0,0,0,2.07,1,3.72,3.72,0,0,0,.86-.09c.25-.07.47-.13.67-.2l.5-.2a.86.86,0,0,1,.38-.1.36.36,0,0,1,.2.06.38.38,0,0,1,.15.19c0,.1.06.24.09.4A3.65,3.65,0,0,1,312.41,138.45Z"/><path class="cls-1" d="M342.55,132.74a7.83,7.83,0,0,1-.7,3.4,7.26,7.26,0,0,1-2,2.53,8.39,8.39,0,0,1-2.94,1.57,12.23,12.23,0,0,1-3.64.52,12.52,12.52,0,0,1-2.53-.23,13.82,13.82,0,0,1-2.08-.56,10.83,10.83,0,0,1-1.54-.7,4.12,4.12,0,0,1-.86-.61A1.42,1.42,0,0,1,326,138a3.61,3.61,0,0,1-.12-1,7.59,7.59,0,0,1,0-.76,1.8,1.8,0,0,1,.13-.5.63.63,0,0,1,.21-.26.54.54,0,0,1,.29-.07,1.67,1.67,0,0,1,.83.36,15.35,15.35,0,0,0,1.38.77,14,14,0,0,0,2,.79,9.46,9.46,0,0,0,2.74.37,7,7,0,0,0,2.16-.32,5.18,5.18,0,0,0,1.68-.89,4,4,0,0,0,1.08-1.42,4.62,4.62,0,0,0,.37-1.91,3.55,3.55,0,0,0-.52-2,5.13,5.13,0,0,0-1.39-1.44,11.73,11.73,0,0,0-2-1.13c-.73-.35-1.49-.7-2.26-1a25.16,25.16,0,0,1-2.24-1.19,9.48,9.48,0,0,1-2-1.53,7.3,7.3,0,0,1-1.39-2.07,6.84,6.84,0,0,1-.54-2.85,7.16,7.16,0,0,1,.62-3,6.34,6.34,0,0,1,1.72-2.24,7.65,7.65,0,0,1,2.63-1.37,10.84,10.84,0,0,1,3.28-.47,11.17,11.17,0,0,1,1.82.15,14,14,0,0,1,1.72.42,11,11,0,0,1,1.44.59,3.49,3.49,0,0,1,.83.53,1.44,1.44,0,0,1,.26.31,1.46,1.46,0,0,1,.11.3,2.22,2.22,0,0,1,.06.43c0,.16,0,.38,0,.65s0,.47,0,.67a2.7,2.7,0,0,1-.09.49.77.77,0,0,1-.18.3.44.44,0,0,1-.27.09,1.77,1.77,0,0,1-.72-.29c-.33-.2-.73-.42-1.21-.66a10.58,10.58,0,0,0-1.69-.68,7.43,7.43,0,0,0-2.19-.3,5.79,5.79,0,0,0-2,.3,4.25,4.25,0,0,0-1.39.81,3.3,3.3,0,0,0-.82,1.2,4,4,0,0,0-.27,1.47,3.53,3.53,0,0,0,.52,2,5.34,5.34,0,0,0,1.4,1.45,12.42,12.42,0,0,0,2,1.15l2.27,1.06c.77.36,1.53.75,2.27,1.18a9.59,9.59,0,0,1,2,1.51,7,7,0,0,1,1.41,2.06A6.73,6.73,0,0,1,342.55,132.74Z"/><path class="cls-1" d="M364,139.84a.49.49,0,0,1-.08.28.64.64,0,0,1-.27.2,2,2,0,0,1-.53.13,6.54,6.54,0,0,1-.84,0,6.78,6.78,0,0,1-.86,0,1.78,1.78,0,0,1-.52-.13.61.61,0,0,1-.28-.2.49.49,0,0,1-.08-.28V128.77a11.35,11.35,0,0,0-.25-2.6,5.5,5.5,0,0,0-.74-1.7,3.13,3.13,0,0,0-1.25-1.09,4,4,0,0,0-1.77-.38,4.53,4.53,0,0,0-2.61.92,14.7,14.7,0,0,0-2.73,2.71v13.21a.42.42,0,0,1-.08.28.58.58,0,0,1-.27.2,1.86,1.86,0,0,1-.53.13,9.05,9.05,0,0,1-1.7,0,2,2,0,0,1-.53-.13.52.52,0,0,1-.28-.2.49.49,0,0,1-.07-.28v-28a.5.5,0,0,1,.35-.51,2.47,2.47,0,0,1,.53-.12,9.05,9.05,0,0,1,1.7,0,2.34,2.34,0,0,1,.53.12.61.61,0,0,1,.27.22.47.47,0,0,1,.08.29v11.32a11.5,11.5,0,0,1,3-2.35,6.67,6.67,0,0,1,3-.76,7.07,7.07,0,0,1,3.18.64,5.79,5.79,0,0,1,2.09,1.71,6.81,6.81,0,0,1,1.15,2.51,15.14,15.14,0,0,1,.34,3.47Z"/><path class="cls-1" d="M385,139.86a.46.46,0,0,1-.17.38,1.23,1.23,0,0,1-.46.19,4.7,4.7,0,0,1-.86.06,4.9,4.9,0,0,1-.87-.06,1.09,1.09,0,0,1-.48-.19.51.51,0,0,1-.14-.38V138a9.39,9.39,0,0,1-2.77,2.06,7.27,7.27,0,0,1-3.22.73,9.13,9.13,0,0,1-2.7-.38,5.81,5.81,0,0,1-2-1.13,5.09,5.09,0,0,1-1.33-1.8,6.1,6.1,0,0,1-.47-2.44,5.67,5.67,0,0,1,.65-2.77,5.44,5.44,0,0,1,1.87-2,9.19,9.19,0,0,1,3-1.17,18.48,18.48,0,0,1,4-.39h2.6v-1.47a7.1,7.1,0,0,0-.23-1.93,3.36,3.36,0,0,0-.74-1.4,3.27,3.27,0,0,0-1.34-.84,6.4,6.4,0,0,0-2-.28,7.76,7.76,0,0,0-2.3.31,11.29,11.29,0,0,0-1.78.67c-.52.24-.94.47-1.29.67a1.74,1.74,0,0,1-.76.3.52.52,0,0,1-.3-.08.92.92,0,0,1-.22-.25,1.46,1.46,0,0,1-.13-.43,3.52,3.52,0,0,1,0-.58,3.65,3.65,0,0,1,.07-.83,1.27,1.27,0,0,1,.36-.58,4.57,4.57,0,0,1,1-.64,11,11,0,0,1,1.6-.67,14.51,14.51,0,0,1,2-.5,12.68,12.68,0,0,1,5.63.26,5.7,5.7,0,0,1,2.31,1.35,5.32,5.32,0,0,1,1.28,2.22,10.93,10.93,0,0,1,.4,3.09Zm-3.45-8.63h-3a11.17,11.17,0,0,0-2.47.24,5,5,0,0,0-1.75.72,2.85,2.85,0,0,0-1,1.13,3.37,3.37,0,0,0-.33,1.52,3.05,3.05,0,0,0,.93,2.34,3.72,3.72,0,0,0,2.62.87,4.89,4.89,0,0,0,2.53-.69,11,11,0,0,0,2.44-2.12Z"/><path class="cls-1" d="M402.84,122.18c0,.31,0,.57,0,.78a1.84,1.84,0,0,1-.08.49.69.69,0,0,1-.16.27.33.33,0,0,1-.26.1,1.05,1.05,0,0,1-.41-.1l-.55-.18a5.13,5.13,0,0,0-.68-.18,3.49,3.49,0,0,0-.82-.09,2.67,2.67,0,0,0-1,.21,3.94,3.94,0,0,0-1.06.7,7.9,7.9,0,0,0-1.16,1.28q-.62.8-1.35,2v12.43a.42.42,0,0,1-.08.28.64.64,0,0,1-.27.2,1.86,1.86,0,0,1-.53.13,6.78,6.78,0,0,1-.86,0,6.64,6.64,0,0,1-.84,0,2,2,0,0,1-.53-.13.52.52,0,0,1-.28-.2.49.49,0,0,1-.07-.28v-18.9a.61.61,0,0,1,.06-.28.54.54,0,0,1,.25-.21,1.51,1.51,0,0,1,.49-.13c.19,0,.45,0,.77,0s.57,0,.77,0a1.26,1.26,0,0,1,.47.13.63.63,0,0,1,.24.21.51.51,0,0,1,.08.28v2.75a14.4,14.4,0,0,1,1.46-1.84,7.88,7.88,0,0,1,1.29-1.13,3.86,3.86,0,0,1,1.21-.56,4.45,4.45,0,0,1,1.2-.16l.62,0a5.27,5.27,0,0,1,.73.12,5.13,5.13,0,0,1,.68.18,1.42,1.42,0,0,1,.43.21.72.72,0,0,1,.17.2,1.26,1.26,0,0,1,.07.25,2.08,2.08,0,0,1,0,.43C402.84,121.6,402.84,121.86,402.84,122.18Z"/><path class="cls-1" d="M422.78,129.57a1.47,1.47,0,0,1-.41,1.17,1.43,1.43,0,0,1-.94.34H409a11.74,11.74,0,0,0,.32,2.84,5.34,5.34,0,0,0,1.06,2.16,4.82,4.82,0,0,0,1.92,1.39,7.66,7.66,0,0,0,2.89.48,11.54,11.54,0,0,0,2.4-.22,15.78,15.78,0,0,0,1.83-.49c.51-.19.93-.35,1.26-.5a2.22,2.22,0,0,1,.75-.22.45.45,0,0,1,.26.08.4.4,0,0,1,.18.22,1.16,1.16,0,0,1,.1.41,5.6,5.6,0,0,1,0,.64c0,.18,0,.34,0,.47a3.48,3.48,0,0,1,0,.36,1,1,0,0,1-.11.28,1.33,1.33,0,0,1-.19.24,2.88,2.88,0,0,1-.68.38,11.09,11.09,0,0,1-1.47.51,19.2,19.2,0,0,1-2.09.45,14.5,14.5,0,0,1-2.53.2,11.57,11.57,0,0,1-4.08-.65,7.58,7.58,0,0,1-2.95-1.93A8.24,8.24,0,0,1,406,135a15.19,15.19,0,0,1-.61-4.49,14.12,14.12,0,0,1,.63-4.38,9.24,9.24,0,0,1,1.82-3.3,8.07,8.07,0,0,1,2.87-2.08,9.43,9.43,0,0,1,3.75-.72,9.16,9.16,0,0,1,3.79.71,7.3,7.3,0,0,1,2.58,1.92,7.85,7.85,0,0,1,1.48,2.84,12.54,12.54,0,0,1,.47,3.47Zm-3.49-1a6.28,6.28,0,0,0-1.21-4.28,4.61,4.61,0,0,0-3.79-1.55,5,5,0,0,0-2.26.48,4.91,4.91,0,0,0-1.63,1.28,5.57,5.57,0,0,0-1,1.86,7.79,7.79,0,0,0-.41,2.21Z"/><path class="cls-1" d="M457.17,136.52c0,.23,0,.42,0,.59a2.48,2.48,0,0,1-.08.44,1.51,1.51,0,0,1-.13.34,2.46,2.46,0,0,1-.3.35,5.42,5.42,0,0,1-.88.64,9.94,9.94,0,0,1-1.67.84,13,13,0,0,1-2.29.7,13.09,13.09,0,0,1-2.82.28,12.37,12.37,0,0,1-4.78-.88,9.65,9.65,0,0,1-3.63-2.61,11.8,11.8,0,0,1-2.31-4.25,21.2,21.2,0,0,1,.07-11.85,13,13,0,0,1,2.44-4.48,10.37,10.37,0,0,1,3.77-2.8,11.82,11.82,0,0,1,4.86-1,11.55,11.55,0,0,1,2.29.22,14.33,14.33,0,0,1,2.06.56,9.34,9.34,0,0,1,1.68.77,5.42,5.42,0,0,1,1,.73,2.17,2.17,0,0,1,.37.43,1.51,1.51,0,0,1,.14.34,4.79,4.79,0,0,1,.08.48,6,6,0,0,1,0,.65,4.78,4.78,0,0,1,0,.71,2,2,0,0,1-.13.5.65.65,0,0,1-.2.29.43.43,0,0,1-.28.09,1.5,1.5,0,0,1-.82-.41,14.9,14.9,0,0,0-1.37-.9,10.67,10.67,0,0,0-2-.9,9,9,0,0,0-2.86-.41,7.46,7.46,0,0,0-3.3.72,7,7,0,0,0-2.55,2.13,10.46,10.46,0,0,0-1.63,3.44,16.68,16.68,0,0,0-.59,4.63,16.94,16.94,0,0,0,.56,4.56,9.52,9.52,0,0,0,1.61,3.32,6.72,6.72,0,0,0,2.56,2,8.41,8.41,0,0,0,3.44.68,9,9,0,0,0,2.84-.4,11.27,11.27,0,0,0,2.07-.89c.57-.33,1-.63,1.4-.89a1.68,1.68,0,0,1,.87-.4.49.49,0,0,1,.25.06.42.42,0,0,1,.17.24,2.19,2.19,0,0,1,.1.49C457.16,135.93,457.17,136.2,457.17,136.52Z"/><path class="cls-1" d="M479.56,130.18a14,14,0,0,1-.61,4.25,9.33,9.33,0,0,1-1.81,3.35,8.35,8.35,0,0,1-3,2.2,10.58,10.58,0,0,1-4.21.78,11,11,0,0,1-4.06-.69,7.37,7.37,0,0,1-2.89-2,8.54,8.54,0,0,1-1.72-3.21,14.8,14.8,0,0,1-.56-4.28,14.32,14.32,0,0,1,.59-4.25,9.18,9.18,0,0,1,1.81-3.35,8.14,8.14,0,0,1,3-2.19,10.77,10.77,0,0,1,4.22-.77,11,11,0,0,1,4.07.69,7.44,7.44,0,0,1,2.88,2,8.56,8.56,0,0,1,1.73,3.21A14.39,14.39,0,0,1,479.56,130.18Zm-3.59.23a14.2,14.2,0,0,0-.28-2.9,7.29,7.29,0,0,0-.95-2.39,4.75,4.75,0,0,0-1.78-1.63,5.88,5.88,0,0,0-2.79-.59,6,6,0,0,0-2.66.54,5.08,5.08,0,0,0-1.84,1.54,7.15,7.15,0,0,0-1.07,2.37,12.13,12.13,0,0,0-.34,3,14.33,14.33,0,0,0,.28,2.92,6.76,6.76,0,0,0,1,2.38,4.75,4.75,0,0,0,1.79,1.62,5.85,5.85,0,0,0,2.79.59,6.05,6.05,0,0,0,2.65-.54,5,5,0,0,0,1.84-1.53,6.66,6.66,0,0,0,1.06-2.35A12.38,12.38,0,0,0,476,130.41Z"/><path class="cls-1" d="M513.12,139.84a.49.49,0,0,1-.08.28.64.64,0,0,1-.27.2,2,2,0,0,1-.53.13,6.54,6.54,0,0,1-.84,0,6.78,6.78,0,0,1-.86,0,2.14,2.14,0,0,1-.54-.13.61.61,0,0,1-.28-.2.49.49,0,0,1-.08-.28V128.35a10.54,10.54,0,0,0-.21-2.18,5.21,5.21,0,0,0-.67-1.7,3.08,3.08,0,0,0-1.18-1.09,3.59,3.59,0,0,0-1.68-.38,4,4,0,0,0-2.4.92,16.74,16.74,0,0,0-2.66,2.71v13.21a.49.49,0,0,1-.08.28.6.6,0,0,1-.29.2,2,2,0,0,1-.53.13,6.74,6.74,0,0,1-.84,0,6.67,6.67,0,0,1-.83,0,2.12,2.12,0,0,1-.55-.13.53.53,0,0,1-.27-.2.49.49,0,0,1-.07-.28V128.35a9.27,9.27,0,0,0-.24-2.18,5.23,5.23,0,0,0-.69-1.7,3.1,3.1,0,0,0-1.16-1.09,3.52,3.52,0,0,0-1.67-.38,4,4,0,0,0-2.42.92,15.94,15.94,0,0,0-2.64,2.71v13.21a.43.43,0,0,1-.09.28.53.53,0,0,1-.27.2,1.87,1.87,0,0,1-.52.13,7,7,0,0,1-.87,0,6.74,6.74,0,0,1-.84,0,2,2,0,0,1-.53-.13.53.53,0,0,1-.27-.2.49.49,0,0,1-.08-.28v-18.9a.51.51,0,0,1,.07-.28.49.49,0,0,1,.25-.21,1.45,1.45,0,0,1,.48-.13q.3,0,.78,0c.31,0,.56,0,.76,0a1.32,1.32,0,0,1,.48.13.63.63,0,0,1,.24.21.51.51,0,0,1,.07.28v2.5a12.31,12.31,0,0,1,3.1-2.61,6.13,6.13,0,0,1,3-.83,7.55,7.55,0,0,1,2.11.27,5.7,5.7,0,0,1,1.65.77,5.22,5.22,0,0,1,1.22,1.17,7.5,7.5,0,0,1,.84,1.53A20.58,20.58,0,0,1,502,122a11.26,11.26,0,0,1,1.64-1.15,6.5,6.5,0,0,1,1.53-.64,5.53,5.53,0,0,1,1.5-.2,6.58,6.58,0,0,1,3.07.64,5.68,5.68,0,0,1,2,1.71,6.89,6.89,0,0,1,1.09,2.51,14.14,14.14,0,0,1,.32,3Z"/><path class="cls-1" d="M537.26,130.1a16.9,16.9,0,0,1-.54,4.45,9.71,9.71,0,0,1-1.57,3.35,7.21,7.21,0,0,1-2.57,2.12,8.07,8.07,0,0,1-3.51.74,6.29,6.29,0,0,1-1.55-.17,5.64,5.64,0,0,1-1.4-.52,8.41,8.41,0,0,1-1.36-.9c-.44-.37-.92-.79-1.42-1.28v9.44a.51.51,0,0,1-.09.3.61.61,0,0,1-.27.21,1.9,1.9,0,0,1-.52.12,6.81,6.81,0,0,1-.87,0,6.53,6.53,0,0,1-.84,0,2,2,0,0,1-.53-.12.61.61,0,0,1-.27-.21.58.58,0,0,1-.08-.3V120.94a.56.56,0,0,1,.07-.3.48.48,0,0,1,.25-.2,1.4,1.4,0,0,1,.48-.12c.2,0,.43,0,.71,0a7.18,7.18,0,0,1,.73,0,1.4,1.4,0,0,1,.47.12.5.5,0,0,1,.34.5v2.54a18.87,18.87,0,0,1,1.66-1.53,10.23,10.23,0,0,1,1.6-1.08,7.52,7.52,0,0,1,1.66-.65,7.85,7.85,0,0,1,5.3.58A6.5,6.5,0,0,1,535.5,123a9.72,9.72,0,0,1,1.34,3.22A17.53,17.53,0,0,1,537.26,130.1Zm-3.59.4a18.38,18.38,0,0,0-.22-2.81,8.15,8.15,0,0,0-.77-2.4,4.46,4.46,0,0,0-1.44-1.68A3.88,3.88,0,0,0,529,123a4.61,4.61,0,0,0-1.33.2,5.16,5.16,0,0,0-1.33.63,9,9,0,0,0-1.42,1.13,18.77,18.77,0,0,0-1.56,1.73v7.52a15,15,0,0,0,2.72,2.67,4.61,4.61,0,0,0,2.71.92,4,4,0,0,0,2.25-.63,4.84,4.84,0,0,0,1.52-1.68,8.51,8.51,0,0,0,.85-2.35A12.22,12.22,0,0,0,533.67,130.5Z"/><path class="cls-1" d="M557.13,139.86a.46.46,0,0,1-.17.38,1.16,1.16,0,0,1-.46.19,4.62,4.62,0,0,1-.86.06,5.06,5.06,0,0,1-.87-.06,1,1,0,0,1-.47-.19.48.48,0,0,1-.15-.38V138a9.48,9.48,0,0,1-2.76,2.06,7.33,7.33,0,0,1-3.22.73,9,9,0,0,1-2.7-.38,5.86,5.86,0,0,1-2.06-1.13,5,5,0,0,1-1.32-1.8,5.94,5.94,0,0,1-.48-2.44,5.67,5.67,0,0,1,.65-2.77,5.44,5.44,0,0,1,1.87-2,9.25,9.25,0,0,1,3-1.17,18.32,18.32,0,0,1,4-.39h2.61v-1.47a7.51,7.51,0,0,0-.23-1.93,3.49,3.49,0,0,0-.75-1.4,3.23,3.23,0,0,0-1.33-.84,6.52,6.52,0,0,0-2-.28,7.81,7.81,0,0,0-2.3.31,11.29,11.29,0,0,0-1.78.67c-.51.24-.94.47-1.28.67a1.82,1.82,0,0,1-.77.3.47.47,0,0,1-.29-.08.67.67,0,0,1-.22-.25,1.21,1.21,0,0,1-.14-.43,3.52,3.52,0,0,1,0-.58,3.65,3.65,0,0,1,.07-.83A1.27,1.27,0,0,1,543,122a4.86,4.86,0,0,1,1-.64,11.51,11.51,0,0,1,1.6-.67,14.51,14.51,0,0,1,2-.5,12.68,12.68,0,0,1,5.63.26,5.7,5.7,0,0,1,2.31,1.35,5.22,5.22,0,0,1,1.28,2.22,10.58,10.58,0,0,1,.4,3.09Zm-3.44-8.63h-3a11.2,11.2,0,0,0-2.48.24,5,5,0,0,0-1.74.72,2.88,2.88,0,0,0-1,1.13,3.37,3.37,0,0,0-.33,1.52,3,3,0,0,0,.94,2.34,3.67,3.67,0,0,0,2.61.87,4.89,4.89,0,0,0,2.53-.69,11,11,0,0,0,2.45-2.12Z"/><path class="cls-1" d="M580.19,139.84a.42.42,0,0,1-.08.28.64.64,0,0,1-.27.2,1.86,1.86,0,0,1-.53.13,6.54,6.54,0,0,1-.84,0,6.78,6.78,0,0,1-.86,0,1.78,1.78,0,0,1-.52-.13.61.61,0,0,1-.28-.2.49.49,0,0,1-.08-.28V128.77a11.35,11.35,0,0,0-.25-2.6,5.5,5.5,0,0,0-.74-1.7,3.13,3.13,0,0,0-1.25-1.09,4,4,0,0,0-1.77-.38,4.48,4.48,0,0,0-2.6.92,14.12,14.12,0,0,0-2.73,2.71v13.21a.43.43,0,0,1-.09.28.58.58,0,0,1-.27.2,1.86,1.86,0,0,1-.53.13,9.05,9.05,0,0,1-1.7,0,2,2,0,0,1-.53-.13.46.46,0,0,1-.27-.2.49.49,0,0,1-.08-.28v-18.9a.61.61,0,0,1,.06-.28.57.57,0,0,1,.26-.21,1.38,1.38,0,0,1,.48-.13c.2,0,.45,0,.78,0s.56,0,.76,0a1.26,1.26,0,0,1,.47.13.6.6,0,0,1,.25.21.51.51,0,0,1,.07.28v2.5a11.43,11.43,0,0,1,3.18-2.61,6.76,6.76,0,0,1,3.2-.83,7.07,7.07,0,0,1,3.18.64,5.79,5.79,0,0,1,2.09,1.71,6.81,6.81,0,0,1,1.15,2.51,15,15,0,0,1,.34,3.45Z"/><path class="cls-1" d="M594.75,140.36l-2.52,6.95a.92.92,0,0,1-.64.52A5,5,0,0,1,590,148a5.18,5.18,0,0,1-.88-.06,1.22,1.22,0,0,1-.52-.17.49.49,0,0,1-.2-.34,1.14,1.14,0,0,1,.11-.5l2.6-6.58a1,1,0,0,1-.35-.27,1,1,0,0,1-.24-.4l-6.73-18a2,2,0,0,1-.17-.7.48.48,0,0,1,.17-.4,1.15,1.15,0,0,1,.54-.2,8.75,8.75,0,0,1,1,0q.63,0,1,0a1.88,1.88,0,0,1,.56.12.7.7,0,0,1,.31.24,3.63,3.63,0,0,1,.2.43l5.39,15.16h.07l5.2-15.24a1,1,0,0,1,.31-.52,1.56,1.56,0,0,1,.53-.17,8.63,8.63,0,0,1,1,0,8.37,8.37,0,0,1,1,0,1.24,1.24,0,0,1,.55.2.49.49,0,0,1,.18.4,2.14,2.14,0,0,1-.12.63Z"/></svg>